<?xml version="1.0" encoding="UTF-8"?>
<!DOCTYPE svg PUBLIC "-//W3C//DTD SVG 1.1//EN" "http://www.w3.org/Graphics/SVG/1.1/DTD/svg11.dtd">
<!-- Creator: CorelDRAW 2020 (64-Bit) -->
<svg xmlns="http://www.w3.org/2000/svg" xml:space="preserve" width="60px" height="60px" version="1.1" style="shape-rendering:geometricPrecision; text-rendering:geometricPrecision; image-rendering:optimizeQuality; fill-rule:evenodd; clip-rule:evenodd"
viewBox="0 0 1.6 1.6"
             xmlns:xlink="http://www.w3.org/1999/xlink"
             xmlns:xodm="http://www.corel.com/coreldraw/odm/2003">
 <defs>
  <style type="text/css">
   <![CDATA[
    .fil0 {fill:#9DB44D;fill-rule:nonzero}
   ]]>
  </style>
 </defs>
 <g id="Layer_x0020_1">
  <metadata id="CorelCorpID_0Corel-Layer"/>
  <g id="spinner.svg">
   <g>
     <path class="fil0" d="M1.05 1.59l0 0c-0.05,0.01 -0.12,-0.06 -0.15,-0.16l0 0c-0.03,-0.1 -0.01,-0.19 0.04,-0.21l0 0c0.04,-0.01 0.11,0.06 0.14,0.16l0 0c0.03,0.1 0.02,0.19 -0.03,0.21z">
          <animate attributeName="opacity" values="1;0" keyTimes="0;1" dur="1s" begin="-0.9166666666666666s" repeatCount="indefinite"/>
     </path>
    </g>
    <g>
      <path class="fil0" d="M0.62 1.6l0 0c-0.05,-0.01 -0.07,-0.1 -0.05,-0.2l0 0c0.03,-0.1 0.09,-0.18 0.14,-0.17l0 0c0.05,0.02 0.07,0.11 0.05,0.21l0 0c-0.02,0.1 -0.08,0.17 -0.14,0.16z">
            <animate attributeName="opacity" values="1;0" keyTimes="0;1" dur="1s" begin="-0.8333333333333334s" repeatCount="indefinite"/>
      </path>
     </g>
     <g>
       <path class="fil0" d="M0.25 1.41l0 0c-0.04,-0.04 -0.01,-0.13 0.06,-0.21l0 0c0.07,-0.07 0.16,-0.11 0.19,-0.07l0 0c0.04,0.03 0.02,0.12 -0.05,0.2l0 0c-0.08,0.08 -0.16,0.11 -0.2,0.08z">
              <animate attributeName="opacity" values="1;0" keyTimes="0;1" dur="1s" begin="-0.75s" repeatCount="indefinite"/>
       </path>
      </g>
      <g>
        <path class="fil0" d="M0.02 1.05l0 0c-0.02,-0.05 0.05,-0.12 0.15,-0.15l0 0c0.1,-0.03 0.2,-0.01 0.21,0.04l0 0c0.02,0.04 -0.05,0.11 -0.15,0.14l0 0c-0.1,0.03 -0.19,0.02 -0.21,-0.03z">
                <animate attributeName="opacity" values="1;0" keyTimes="0;1" dur="1s" begin="-0.6666666666666666s" repeatCount="indefinite"/>
        </path>
       </g>
       <g>
         <path class="fil0" d="M0 0.62l0 0c0.01,-0.05 0.1,-0.07 0.21,-0.05l0 0c0.1,0.03 0.17,0.09 0.16,0.14l0 0c-0.01,0.05 -0.1,0.07 -0.2,0.05l0 0c-0.11,-0.02 -0.18,-0.08 -0.17,-0.14z">
                  <animate attributeName="opacity" values="1;0" keyTimes="0;1" dur="1s" begin="-0.5833333333333334s" repeatCount="indefinite"/>
         </path>
        </g>
        <g>
          <path class="fil0" d="M0.2 0.25l0 0c0.03,-0.04 0.12,-0.01 0.2,0.06l0 0c0.08,0.07 0.11,0.16 0.08,0.19l0 0c-0.04,0.04 -0.13,0.02 -0.21,-0.05l0 0c-0.07,-0.08 -0.11,-0.16 -0.07,-0.2z">
                    <animate attributeName="opacity" values="1;0" keyTimes="0;1" dur="1s" begin="-0.5s" repeatCount="indefinite"/>
          </path>
         </g>
         <g>
           <path class="fil0" d="M0.56 0.02l0 0c0.05,-0.02 0.11,0.05 0.14,0.15l0 0c0.03,0.1 0.02,0.2 -0.03,0.21l0 0c-0.05,0.02 -0.12,-0.05 -0.15,-0.15l0 0c-0.03,-0.1 -0.01,-0.19 0.04,-0.21z">
                      <animate attributeName="opacity" values="1;0" keyTimes="0;1" dur="1s" begin="-0.4166666666666667s" repeatCount="indefinite"/>
           </path>
          </g>
          <g>
            <path class="fil0" d="M0.98 0l0 0c0.05,0.01 0.07,0.1 0.05,0.21l0 0c-0.02,0.1 -0.08,0.17 -0.13,0.16l0 0c-0.05,-0.01 -0.08,-0.1 -0.05,-0.2l0 0c0.02,-0.11 0.08,-0.18 0.13,-0.17z">
                        <animate attributeName="opacity" values="1;0" keyTimes="0;1" dur="1s" begin="-0.3333333333333333s" repeatCount="indefinite"/>
            </path>
           </g>
           <g>
             <path class="fil0" d="M1.36 0.2l0 0c0.04,0.03 0.01,0.12 -0.06,0.2l0 0c-0.07,0.08 -0.16,0.11 -0.2,0.08l0 0c-0.04,-0.04 -0.01,-0.13 0.06,-0.21l0 0c0.07,-0.07 0.16,-0.11 0.2,-0.07z">
                          <animate attributeName="opacity" values="1;0" keyTimes="0;1" dur="1s" begin="-0.25s" repeatCount="indefinite"/>
             </path>
            </g>
            <g>
              <path class="fil0" d="M1.59 0.56l0 0c0.01,0.05 -0.06,0.11 -0.16,0.14l0 0c-0.1,0.03 -0.19,0.02 -0.21,-0.03l0 0c-0.01,-0.05 0.06,-0.12 0.16,-0.15l0 0c0.1,-0.03 0.19,-0.01 0.21,0.04z">
                            <animate attributeName="opacity" values="1;0" keyTimes="0;1" dur="1s" begin="-0.16666666666666666s" repeatCount="indefinite"/>
              </path>
             </g>
             <g>
               <path class="fil0" d="M1.6 0.98l0 0c-0.01,0.05 -0.1,0.07 -0.2,0.05l0 0c-0.1,-0.02 -0.18,-0.08 -0.17,-0.13l0 0c0.02,-0.05 0.11,-0.08 0.21,-0.05l0 0c0.1,0.02 0.17,0.08 0.16,0.13z">
                              <animate attributeName="opacity" values="1;0" keyTimes="0;1" dur="1s" begin="-0.08333333333333333s" repeatCount="indefinite"/>
               </path>
              </g>
              <g>
                <path class="fil0" d="M1.41 1.36l0 0c-0.04,0.04 -0.13,0.01 -0.21,-0.06l0 0c-0.07,-0.07 -0.11,-0.16 -0.07,-0.2l0 0c0.03,-0.04 0.12,-0.01 0.2,0.06l0 0c0.08,0.07 0.11,0.16 0.08,0.2z">
                                <animate attributeName="opacity" values="1;0" keyTimes="0;1" dur="1s" begin="0s" repeatCount="indefinite"/>
                </path>
               </g>
              </g>
             </g>
</svg>
