<?xml version="1.0" encoding="UTF-8"?>
<!DOCTYPE svg PUBLIC "-//W3C//DTD SVG 1.1//EN" "http://www.w3.org/Graphics/SVG/1.1/DTD/svg11.dtd">
<!-- Creator: CorelDRAW 2020 (64-Bit) -->
<svg xmlns="http://www.w3.org/2000/svg" xml:space="preserve" width="369px" height="65px" version="1.1" style="shape-rendering:geometricPrecision; text-rendering:geometricPrecision; image-rendering:optimizeQuality; fill-rule:evenodd; clip-rule:evenodd"
viewBox="0 0 95.07 16.75"
 xmlns:xlink="http://www.w3.org/1999/xlink"
 xmlns:xodm="http://www.corel.com/coreldraw/odm/2003">
 <defs>
  <style type="text/css">
   <![CDATA[
    .fil2 {fill:#F2D1D0;fill-rule:nonzero}
    .fil6 {fill:#708635;fill-rule:nonzero}
    .fil0 {fill:black;fill-rule:nonzero}
    .fil4 {fill:#7E9A37;fill-rule:nonzero}
    .fil5 {fill:#9DB44D;fill-rule:nonzero}
    .fil3 {fill:#D22C26;fill-rule:nonzero}
    .fil1 {fill:#DF2F25;fill-rule:nonzero}
    .fil7 {fill:#E64127;fill-rule:nonzero}
    .fil8 {fill:#E65145;fill-rule:nonzero}
    .fil9 {fill:#EC654D;fill-rule:nonzero}
    .fil10 {fill:#F08773;fill-rule:nonzero}
   ]]>
  </style>
 </defs>
 <g id="Layer_x0020_1">
  <metadata id="CorelCorpID_0Corel-Layer"/>
  <g id="_2934519952624">
   <path class="fil0" d="M76.65 16.75c-1.12,0 -2.13,-0.26 -3.03,-0.77 -0.89,-0.52 -1.6,-1.23 -2.12,-2.12 -0.52,-0.9 -0.78,-1.92 -0.78,-3.05 0,-1.13 0.26,-2.13 0.76,-3.03 0.5,-0.9 1.19,-1.6 2.06,-2.12 0.86,-0.52 1.84,-0.78 2.94,-0.78 0.95,0 1.81,0.2 2.58,0.61 0.76,0.4 1.38,0.94 1.85,1.61l0 -6.27c0,-0.25 0.08,-0.46 0.24,-0.61 0.15,-0.15 0.35,-0.22 0.59,-0.22 0.24,0 0.44,0.07 0.6,0.22 0.16,0.15 0.23,0.36 0.23,0.61l0 10.06c-0.02,1.11 -0.3,2.11 -0.82,3 -0.51,0.89 -1.22,1.58 -2.11,2.1 -0.88,0.51 -1.88,0.76 -2.99,0.76zm-47.77 -0.1c-0.23,0 -0.42,-0.08 -0.58,-0.25 -0.17,-0.16 -0.25,-0.36 -0.25,-0.58l0 -14.99c0,-0.24 0.08,-0.44 0.24,-0.6 0.15,-0.15 0.35,-0.23 0.59,-0.23l10 0c0.24,0 0.44,0.07 0.6,0.22 0.15,0.15 0.23,0.35 0.23,0.59 0,0.21 -0.08,0.4 -0.23,0.55 -0.16,0.16 -0.36,0.24 -0.6,0.24l-9.17 0 0 5.88 6.68 0c0.24,0 0.44,0.08 0.59,0.24 0.16,0.15 0.24,0.34 0.24,0.57 0,0.23 -0.08,0.42 -0.24,0.58 -0.15,0.15 -0.35,0.23 -0.59,0.23l-6.68 0 0 6.72c0,0.22 -0.07,0.42 -0.23,0.58 -0.16,0.17 -0.36,0.25 -0.6,0.25zm-3.73 0c-0.75,0 -1.42,-0.18 -2.01,-0.54 -0.59,-0.35 -1.06,-0.84 -1.4,-1.46 -0.34,-0.61 -0.51,-1.32 -0.51,-2.12l0 -10.42c0,-0.24 0.07,-0.44 0.22,-0.6 0.15,-0.15 0.35,-0.23 0.59,-0.23 0.24,0 0.44,0.08 0.6,0.23 0.15,0.16 0.23,0.36 0.23,0.6l0 10.42c0,0.73 0.21,1.32 0.64,1.78 0.43,0.47 0.97,0.7 1.64,0.7l0.58 0c0.22,0 0.41,0.07 0.55,0.23 0.14,0.16 0.21,0.36 0.21,0.6 0,0.24 -0.08,0.43 -0.25,0.58 -0.17,0.15 -0.38,0.23 -0.64,0.23l-0.45 0zm-5.31 -9.81c-0.21,0 -0.39,-0.07 -0.53,-0.2 -0.14,-0.14 -0.21,-0.3 -0.21,-0.5 0,-0.21 0.07,-0.39 0.21,-0.52 0.14,-0.14 0.32,-0.21 0.53,-0.21l5.44 0c0.21,0 0.39,0.07 0.53,0.21 0.14,0.13 0.22,0.31 0.22,0.52 0,0.2 -0.08,0.36 -0.22,0.5 -0.14,0.13 -0.32,0.2 -0.53,0.2l-5.44 0zm-4.24 9.81c-0.25,0 -0.46,-0.08 -0.6,-0.23 -0.15,-0.15 -0.23,-0.35 -0.23,-0.6l0 -10c0,-0.26 0.08,-0.46 0.23,-0.61 0.14,-0.15 0.35,-0.22 0.6,-0.22 0.24,0 0.44,0.07 0.59,0.22 0.15,0.15 0.22,0.35 0.22,0.61l0 10c0,0.25 -0.07,0.45 -0.22,0.6 -0.15,0.15 -0.35,0.23 -0.59,0.23zm-0.02 -13.88c-0.31,0 -0.58,-0.11 -0.81,-0.34 -0.23,-0.23 -0.34,-0.5 -0.34,-0.83 0,-0.36 0.12,-0.64 0.35,-0.84 0.24,-0.21 0.51,-0.31 0.82,-0.31 0.3,0 0.57,0.1 0.8,0.31 0.24,0.2 0.35,0.48 0.35,0.84 0,0.33 -0.11,0.6 -0.34,0.83 -0.22,0.23 -0.5,0.34 -0.83,0.34zm-14.75 13.88c-0.23,0 -0.42,-0.08 -0.58,-0.25 -0.17,-0.16 -0.25,-0.36 -0.25,-0.58l0 -14.99c0,-0.24 0.08,-0.44 0.23,-0.6 0.16,-0.15 0.36,-0.23 0.6,-0.23l10 0c0.24,0 0.44,0.07 0.6,0.22 0.15,0.15 0.23,0.35 0.23,0.59 0,0.21 -0.08,0.4 -0.23,0.55 -0.16,0.16 -0.36,0.24 -0.6,0.24l-9.17 0 0 5.88 6.67 0c0.25,0 0.44,0.08 0.6,0.24 0.16,0.15 0.24,0.34 0.24,0.57 0,0.23 -0.08,0.42 -0.24,0.58 -0.16,0.15 -0.35,0.23 -0.6,0.23l-6.67 0 0 6.72c0,0.22 -0.08,0.42 -0.23,0.58 -0.16,0.17 -0.36,0.25 -0.6,0.25zm89.65 0.1c-0.84,0 -1.67,-0.14 -2.49,-0.42 -0.83,-0.29 -1.49,-0.71 -2.01,-1.28 -0.15,-0.17 -0.22,-0.36 -0.19,-0.58 0.03,-0.21 0.14,-0.39 0.32,-0.55 0.2,-0.14 0.41,-0.2 0.62,-0.17 0.21,0.03 0.39,0.12 0.53,0.28 0.34,0.39 0.8,0.7 1.36,0.91 0.56,0.22 1.18,0.32 1.86,0.32 1.05,0 1.81,-0.18 2.28,-0.54 0.47,-0.36 0.71,-0.8 0.73,-1.31 0,-0.51 -0.24,-0.94 -0.73,-1.27 -0.48,-0.33 -1.28,-0.59 -2.38,-0.78 -1.44,-0.23 -2.49,-0.62 -3.16,-1.19 -0.67,-0.57 -1,-1.25 -1,-2.03 0,-0.72 0.19,-1.33 0.57,-1.81 0.39,-0.48 0.9,-0.84 1.54,-1.09 0.64,-0.24 1.34,-0.36 2.11,-0.36 0.95,0 1.77,0.16 2.46,0.49 0.69,0.33 1.25,0.77 1.67,1.32 0.15,0.19 0.2,0.38 0.18,0.58 -0.03,0.2 -0.15,0.36 -0.35,0.49 -0.17,0.1 -0.36,0.13 -0.58,0.09 -0.22,-0.03 -0.41,-0.13 -0.57,-0.3 -0.35,-0.42 -0.76,-0.72 -1.23,-0.91 -0.47,-0.19 -1.01,-0.29 -1.62,-0.29 -0.78,0 -1.41,0.16 -1.88,0.48 -0.47,0.32 -0.7,0.72 -0.7,1.21 0,0.32 0.09,0.61 0.26,0.85 0.18,0.24 0.49,0.45 0.92,0.64 0.43,0.18 1.04,0.34 1.82,0.47 1.07,0.17 1.91,0.42 2.53,0.75 0.62,0.34 1.06,0.73 1.32,1.18 0.26,0.44 0.4,0.93 0.4,1.46 0,0.66 -0.2,1.25 -0.59,1.75 -0.39,0.51 -0.93,0.9 -1.62,1.19 -0.69,0.28 -1.48,0.42 -2.38,0.42zm-13.83 -1.49c0.82,0 1.56,-0.19 2.2,-0.58 0.65,-0.4 1.16,-0.92 1.54,-1.59 0.38,-0.67 0.56,-1.43 0.56,-2.28 0,-0.84 -0.18,-1.6 -0.56,-2.27 -0.38,-0.68 -0.89,-1.21 -1.54,-1.59 -0.64,-0.38 -1.38,-0.58 -2.2,-0.58 -0.81,0 -1.54,0.2 -2.2,0.58 -0.65,0.38 -1.17,0.91 -1.55,1.59 -0.39,0.67 -0.58,1.43 -0.58,2.27 0,0.85 0.19,1.61 0.58,2.28 0.38,0.67 0.9,1.19 1.55,1.59 0.66,0.39 1.39,0.58 2.2,0.58z"/>
   <g>
    <path class="fil1" d="M41.15 11.2c0.22,3.1 3.13,5.38 6.09,5.46 3.14,0.08 6.22,-2.31 6.45,-5.46 0.21,-2.77 -1.84,-5.36 -3.76,-5.84 -0.77,-0.2 -2.13,-0.21 -2.51,-0.22 -0.37,0 -1.55,-0.01 -2.23,0.12 -1.95,0.4 -4.25,3 -4.04,5.94z"/>
    <path class="fil2" d="M41.23 11.8l0 0 0 0zm0 0c0,0 0,0 0,0 0,0 0,0 0,0zm-0.01 -0.03c0,0 0,0 0,0 0,0 0,0 0,0zm0 -0.01l0 0 0 0zm0 -0.02c0,0 0,0 0,0 0,0 0,0 0,0zm0 0c0,0 0,-0.01 0,-0.01 0,0 0,0 0,0.01zm-0.01 -0.02c0,0 0,-0.01 0,-0.01 0,0.01 0,0.01 0,0.01zm0 -0.01c0,0 0,0 0,0 0,0 0,0 0,0zm0 -0.01c0,0 0,0 0,0 0,0 0,0 0,0zm0 -0.01c0,0 0,0 0,0 0,0 0,0 0,0zm0 -0.01c0,0 0,0 0,0 0,0 0,0 0,0zm0 -0.01c0,0 0,0 0,0 0,0 0,0 0,0zm0 0c0,-0.01 -0.01,-0.01 -0.01,-0.01 0,0 0.01,0 0.01,0.01zm-0.01 -0.01c0,-0.01 0,-0.01 0,-0.01 0,0 0,0 0,0.01zm0 -0.01c0,0 0,0 0,-0.01 0,0.01 0,0.01 0,0.01zm0 -0.01c0,0 0,0 0,-0.01 0,0.01 0,0.01 0,0.01zm0 -0.01c0,0 0,0 0,0 0,0 0,0 0,0zm0 -0.01c0,0 0,0 0,0 0,0 0,0 0,0zm0 -0.01c0,0 0,0 0,0 0,0 0,0 0,0zm0 0c0,-0.01 0,-0.01 0,-0.01 0,0 0,0 0,0.01zm-0.01 -0.01c0,-0.01 0,-0.01 0,-0.01 0,0 0,0 0,0.01zm0 -0.01c0,0 0,-0.01 0,-0.01 0,0 0,0.01 0,0.01zm0 -0.01c0,0 0,-0.01 0,-0.01 0,0 0,0.01 0,0.01zm0 -0.01c0,0 0,-0.01 0,-0.01 0,0 0,0.01 0,0.01zm0 -0.01c0,0 0,0 0,-0.01 0,0.01 0,0.01 0,0.01zm0 -0.01c0,0 0,0 0,0 0,0 0,0 0,0zm0 -0.01c0,0 0,0 0,0 0,0 0,0 0,0zm0 -0.01c0,0 0,0 0,0 0,0 0,0 0,0zm-0.01 -0.01c0,0 0,0 0,0 0,0 0,0 0,0zm0 0c0,-0.01 0,-0.01 0,-0.01 0,0 0,0 0,0.01zm0 -0.01c0,-0.01 0,-0.01 0,-0.01 0,0 0,0 0,0.01zm0 -0.01c0,0 0,-0.01 0,-0.01 0,0 0,0.01 0,0.01zm0 -0.01c0,-0.01 0,-0.01 0,-0.02 0,0.01 0,0.01 0,0.02zm0 -0.02c0,0 0,0 0,0 0,0 0,0 0,0zm0 -0.01c0,0 0,0 0,0 0,0 0,0 0,0zm0 -0.01c0,0 0,0 -0.01,0 0.01,0 0.01,0 0.01,0zm-0.01 -0.01c0,0 0,0 0,0 0,0 0,0 0,0zm0 0c0,-0.01 0,-0.01 0,-0.01 0,0 0,0 0,0.01zm0 -0.01c0,-0.01 0,-0.01 0,-0.02 0,0.01 0,0.01 0,0.02zm0 -0.02c0,0 0,-0.01 0,-0.01 0,0 0,0.01 0,0.01zm0 -0.01c0,0 0,0 0,-0.01 0,0.01 0,0.01 0,0.01zm0 -0.01c0,0 0,0 0,-0.01 0,0.01 0,0.01 0,0.01zm0 -0.01c0,0 0,0 0,0 0,0 0,0 0,0zm0 -0.01c0,0 0,0 0,0 0,0 0,0 0,0zm0 -0.01c0,0 -0.01,-0.01 -0.01,-0.01 0,0 0.01,0.01 0.01,0.01zm-0.01 -0.01c0,-0.01 0,-0.01 0,-0.01 0,0 0,0 0,0.01zm0 -0.01c0,0 0,-0.01 0,-0.01 0,0 0,0.01 0,0.01zm0 -0.01c0,0 0,-0.01 0,-0.01 0,0 0,0.01 0,0.01zm0 -0.01c0,0 0,-0.01 0,-0.01 0,0 0,0.01 0,0.01zm0 -0.01c0,0 0,0 0,-0.01 0,0.01 0,0.01 0,0.01zm0 -0.01c0,0 0,0 0,-0.01 0,0.01 0,0.01 0,0.01zm0 -0.01c0,0 0,0 0,0 0,0 0,0 0,0zm0 -0.01c0,0 0,0 0,0 0,0 0,0 0,0zm0 -0.01c0,0 0,0 0,0 0,0 0,0 0,0zm0 0c0,-0.01 0,-0.01 0,-0.01 0,0 0,0 0,0.01zm0 -0.01c0,-0.01 0,-0.01 0,-0.01 0,0 0,0 0,0.01zm-0.01 -0.01c0,-0.01 0,-0.01 0,-0.01 0,0 0,0 0,0.01zm0 -0.01c0,0 0,-0.01 0,-0.01 0,0 0,0.01 0,0.01zm0 -0.01c0,0 0,-0.01 0,-0.01 0,0 0,0.01 0,0.01zm0 -0.01c0,0 0,0 0,-0.01 0,0.01 0,0.01 0,0.01zm0 -0.01c0,0 0,0 0,-0.01 -0.01,-0.12 -0.01,-0.25 -0.01,-0.37 0,0.12 0,0.25 0.01,0.37 0,0.01 0,0.01 0,0.01zm8.82 -5.84c0,0 0,0 0,0 0,0 0,0 0,0zm-0.02 -0.01c0,0 0,0 0,0 0,0 0,0 0,0zm0 0c0,0 0,0 0,0 0,0 0,0 0,0zm-0.01 0c0,0 0,0 0,0 0,0 0,0 0,0zm0 0c0,0 0,0 0,0 0,0 0,0 0,0zm-0.01 0c0,0 0,0 0,0 0,0 0,0 0,0zm-4.72 -0.1c0.01,0 0.01,0 0.02,0 -0.01,0 -0.01,0 -0.02,0zm0.03 0c0,-0.01 0,-0.01 0,-0.01 0,0 0,0 0,0.01zm0.01 -0.01c0.01,0 0.01,0 0.02,0 -0.01,0 -0.01,0 -0.02,0zm0.02 0c0,0 0,0 0,0 0,0 0,0 0,0zm2.15 -0.11c-0.08,0 -0.21,0 -0.36,0 0.15,0 0.28,0 0.36,0zm-0.44 0c0.03,0 0.05,0 0.08,0l0 0c-0.03,0 -0.05,0 -0.08,0z"/>
    <path class="fil3" d="M45.28 16.29c-0.66,-0.35 -1.27,-0.79 -1.79,-1.33 -1.07,-1.1 -1.73,-2.62 -1.7,-4.16 0.03,-1.54 0.77,-3.07 2.02,-3.97 0.29,-0.2 0.63,-0.38 0.98,-0.38 0.03,0 0.06,0 0.1,0 0.4,0.05 0.74,0.33 1.13,0.43 0.32,0.07 0.65,0.03 0.96,0.12 0.49,0.13 0.9,0.57 1.41,0.57 0.01,0 0.03,0 0.05,0 0.41,-0.02 0.75,-0.35 1.15,-0.41 0.05,0 0.1,0 0.15,0 0.25,0 0.49,0.07 0.74,0.08 0.01,0 0.02,0 0.03,0 0.29,0 0.62,-0.15 0.66,-0.44 0.03,-0.17 0.21,-0.27 0.38,-0.27 0.04,0 0.07,0.01 0.11,0.02 0.2,0.05 0.35,0.2 0.51,0.34 0.03,0.02 0.06,0.05 0.09,0.07 -0.67,-0.8 -1.49,-1.38 -2.29,-1.59 0,0 0,0 0,0 0,0 -0.01,-0.01 -0.02,-0.01 0,0 0,0 0,0 0,0 0,0 0,0 0,0 0,0 0,0 0,0 0,0 -0.01,0 0,0 0,0 0,0 0,0 0,0 0,0 0,0 0,0 0,0 0,0 -0.01,0 -0.01,0 0,0 0,0 0,0l0 0c-0.77,-0.2 -2.13,-0.21 -2.51,-0.22l0 0c-0.08,0 -0.21,0 -0.36,0 0,0 0,0 0,0 -0.03,0 -0.05,0 -0.08,0 -0.49,0 -1.21,0.02 -1.71,0.11 0,0 0,0 0,0 0,0 0,0 0,0 -0.01,0 -0.01,0 -0.02,0 0,0 0,0 -0.01,0 0,0 0,0 0,0.01 -0.01,0 -0.01,0 -0.01,0 -0.01,0 -0.01,0 -0.02,0 0,0 -0.01,0 -0.02,0 -1.87,0.39 -4.05,2.78 -4.05,5.57 0,0.12 0,0.25 0.01,0.37 0,0.01 0,0.01 0,0.01 0,0 0,0 0,0 0,0.01 0,0.01 0,0.01 0,0 0,0 0,0 0,0 0,0.01 0,0.01 0,0 0,0 0,0 0,0 0,0.01 0,0.01 0,0 0,0 0,0 0,0 0,0 0,0.01 0.01,0 0.01,0 0.01,0 0,0 0,0 0,0.01 0,0 0,0 0,0 0,0 0,0 0,0.01l0 0c0,0 0,0 0,0 0,0.01 0,0.01 0,0.01 0,0 0,0 0,0 0,0 0,0 0,0.01 0,0 0,0 0,0 0,0 0,0 0,0 0,0.01 0,0.01 0,0.01 0,0 0,0 0,0 0,0.01 0,0.01 0,0.01 0,0 0,0 0,0 0,0 0,0.01 0,0.01 0,0 0,0 0,0 0,0 0,0.01 0,0.01 0,0 0,0 0,0 0,0 0,0.01 0,0.01 0,0 0,0 0,0 0,0 0,0 0,0.01 0,0 0,0 0,0 0,0 0.01,0.01 0.01,0.01 0,0.01 0,0.01 0,0.01 0,0 0,0 0,0 0,0 0,0 0,0.01 0,0 0,0 0,0 0,0 0,0 0,0 0,0.01 0,0.01 0,0.01 0,0 0,0 0,0 0,0.01 0,0.01 0,0.01 0,0 0,0 0,0 0,0 0,0.01 0,0.01 0,0 0,0 0,0 0,0.01 0,0.01 0,0.02 0,0 0,0 0,0 0,0 0,0 0,0.01 0,0 0,0 0,0 0,0 0,0 0,0 0,0.01 0,0.01 0,0.01 0.01,0 0.01,0 0.01,0 0,0 0,0.01 0,0.01 0,0 0,0 0,0 0,0 0,0 0,0.01 0,0 0,0 0,0 0,0 0,0 0,0 0,0.01 0,0.01 0,0.02 0,0 0,0 0,0 0,0 0,0.01 0,0.01 0,0 0,0 0,0 0,0 0,0 0,0.01 0,0 0,0 0,0 0,0 0,0 0,0.01 0,0 0,0 0,0 0,0 0,0 0,0 0,0.01 0.01,0.01 0.01,0.01 0,0 0,0 0,0 0,0 0,0 0,0.01 0,0 0,0 0,0 0,0 0,0 0,0.01 0,0 0,0 0,0 0,0 0,0 0,0 0,0.01 0,0.01 0,0.01 0,0 0,0 0,0 0,0 0,0.01 0,0.01 0,0 0,0 0,0 0,0 0,0.01 0,0.01 0,0 0,0 0,0 0,0 0,0.01 0,0.01 0,0 0,0 0,0 0,0 0,0 0,0.01 0,0 0,0 0.01,0 0,0 0,0 0,0.01 0,0 0,0 0,0 0,0 0,0 0,0 0,0 0,0.01 0,0.01 0,0 0,0 0,0 0,0 0,0 0,0.01 0,0 0,0 0,0 0,0 0,0 0,0 0,0.01 0,0.01 0,0.01 0,0 0,0 0,0 0,0.01 0,0.01 0,0.01 0,0 0,0 0,0 0,0 0,0 0,0.01 0,0 0,0 0,0 0,0 0.01,0 0.01,0.01 0,0 0,0 0,0 0,0 0,0 0,0 0,0.01 0,0.01 0,0.01 0,0 0,0 0,0 0,0 0,0.01 0,0.01 0,0 0,0 0,0 0,0 0,0.01 0,0.01 0,0 0,0 0,0 0,0 0,0 0,0.01 0,0 0,0 0,0 0,0 0,0 0,0 0,0 0,0.01 0,0.01 0,0 0.01,0.01 0.01,0.01 0,0 0,0.01 0,0.01 0,0 0,0 0,0 0,0 0,0 0,0 0,0.01 0,0.02 0,0.02l0 0c0,0 0,0.01 0,0.01 0,0 0,0 0,0 0,0.01 0.01,0.02 0.01,0.03 0,0 0,0 0,0 0,0 0,0 0,0l0 0c0.4,2.12 2.06,3.77 4.05,4.49z"/>
    <path class="fil4" d="M46.32 3.83c-0.09,-0.29 -0.25,-0.56 -0.46,-0.77 0.18,0.27 0.6,0.28 0.83,0.52 0.07,0.08 0.12,0.18 0.17,0.28 0.26,0.6 0.45,1.31 1.03,1.61 0.47,0.25 1.05,0.13 1.57,-0.03 0.35,-0.11 0.71,-0.23 1.02,-0.43 0.49,-0.31 0.94,-0.82 1.52,-0.79 -0.33,0.39 -0.73,0.72 -1.17,0.98 -0.37,0.21 -0.79,0.38 -1.05,0.72 -0.05,0.07 -0.1,0.17 -0.06,0.26 0.03,0.09 0.15,0.11 0.24,0.13 0.39,0.07 0.84,0.12 1.13,-0.15 0.27,-0.24 0.31,-0.67 0.58,-0.92 -0.07,0.26 -0.14,0.52 -0.21,0.78 -0.1,0.38 -0.26,0.83 -0.64,0.94 -0.34,0.09 -0.72,-0.13 -1.04,0 -0.13,0.04 -0.23,0.14 -0.34,0.21 -0.43,0.29 -1.02,0.31 -1.47,0.04 -0.17,-0.1 -0.32,-0.24 -0.49,-0.35 -0.74,-0.47 -1.77,-0.24 -2.5,-0.73 -0.12,-0.09 -0.24,-0.2 -0.31,-0.34 -0.06,-0.13 -0.09,-0.27 -0.09,-0.42 -0.04,-0.69 0.25,-1.39 0.77,-1.86 -0.13,0.17 -0.35,0.52 -0.39,1.01 -0.01,0.19 -0.03,0.42 0.09,0.65 0.27,0.55 1.1,0.78 1.53,0.53 0.05,-0.03 0.22,-0.14 0.27,-0.33 0.03,-0.13 0,-0.27 -0.08,-0.42 -0.22,-0.39 -0.32,-0.69 -0.45,-1.12z"/>
    <path class="fil4" d="M48.17 3.99c0.05,-0.13 0.11,-0.27 0.22,-0.36 0.11,-0.09 0.28,-0.11 0.38,-0.01 -0.26,0.77 -0.41,1.59 -0.42,2.4 -0.13,0.07 -0.25,0.14 -0.39,0.16 -0.53,0.05 -0.27,-0.54 -0.21,-0.82 0.11,-0.47 0.25,-0.92 0.42,-1.37z"/>
    <path class="fil5" d="M47.41 6.79c0.24,0.25 0.62,0.3 0.96,0.24 0.34,-0.06 0.65,-0.22 0.97,-0.34 0.31,-0.13 0.66,-0.23 1,-0.16 -0.22,0.12 -0.42,0.27 -0.6,0.44 -0.11,0.05 -0.2,0.13 -0.3,0.2 -0.43,0.29 -1.02,0.31 -1.47,0.04 -0.17,-0.1 -0.32,-0.24 -0.49,-0.35 -0.02,-0.02 -0.05,-0.03 -0.07,-0.04l0 -0.03z"/>
    <path class="fil6" d="M48.17 3.99c0.05,-0.13 0.11,-0.27 0.22,-0.36 0.03,-0.03 0.08,-0.05 0.12,-0.06 -0.47,0.76 -0.64,1.71 -0.48,2.59 -0.02,0.01 -0.05,0.01 -0.07,0.02 -0.53,0.05 -0.27,-0.54 -0.21,-0.82 0.11,-0.47 0.25,-0.92 0.42,-1.37z"/>
    <path class="fil7" d="M43.38 10.12c-0.09,-0.35 -0.2,-0.92 -0.02,-1.61 0.14,-0.53 0.47,-1.01 0.96,-1.26 0.44,-0.21 0.95,-0.21 1.42,-0.13 0.48,0.09 0.94,0.25 1.41,0.37 0.93,0.22 1.91,0.23 2.84,0.02 0.6,-0.13 1.23,-0.35 1.83,-0.17 0.67,0.2 1.11,0.87 1.28,1.56 0.33,1.36 -0.24,2.89 -1.39,3.69 -0.66,0.47 -1.47,0.69 -2.28,0.76 -1.06,0.09 -2.3,0.34 -3.62,-0.31 -1.25,-0.62 -2.12,-1.77 -2.43,-2.92z"/>
    <path class="fil8" d="M43.44 11.11c0.07,0 0.13,0 0.19,-0.01 0.05,0 0.1,0 0.15,-0.01 -0.17,-0.31 -0.31,-0.64 -0.4,-0.97 -0.09,-0.35 -0.2,-0.92 -0.02,-1.61 0.14,-0.53 0.47,-1.01 0.96,-1.26 0.06,-0.03 0.12,-0.05 0.18,-0.07 -0.04,-0.04 -0.1,-0.06 -0.16,-0.06 -0.44,0 -1.19,0.96 -1.34,1.19 -0.39,0.57 -0.64,1.25 -0.59,1.93 0.02,0.2 0.06,0.4 0.18,0.56 0.2,0.25 0.53,0.31 0.85,0.31z"/>
    <path class="fil9" d="M43.78 11.09c0.5,-0.05 1,-0.19 1.32,-0.56 0.37,-0.43 0.4,-1.08 0.14,-1.58 -0.18,-0.35 -0.49,-0.65 -0.56,-1.04 -0.03,-0.18 0,-0.38 -0.06,-0.55 -0.03,-0.09 -0.07,-0.14 -0.12,-0.18 -0.06,0.02 -0.12,0.04 -0.18,0.07 -0.49,0.25 -0.82,0.73 -0.96,1.26 -0.18,0.69 -0.07,1.26 0.02,1.61 0.09,0.33 0.23,0.66 0.4,0.97z"/>
    <path class="fil10" d="M50.64 11.38c0.36,0 0.72,-0.07 1.05,-0.21 0.19,-0.09 0.38,-0.19 0.52,-0.35 0.32,-0.35 0.34,-0.88 0.27,-1.35 -0.05,-0.31 -0.15,-0.62 -0.38,-0.84 -0.23,-0.23 -0.55,-0.3 -0.89,-0.3 -0.24,0 -0.48,0.04 -0.71,0.08 -0.46,0.08 -0.92,0.15 -1.37,0.24 -0.23,0.04 -0.49,0.06 -0.67,0.24 -0.55,0.55 -0.06,1.46 0.42,1.87 0.48,0.41 1.12,0.62 1.76,0.62z"/>
   </g>
   <g>
    <path class="fil1" d="M56.7 14.16c1.74,2.57 5.4,3.09 8,1.68 2.76,-1.5 4.23,-5.11 2.86,-7.95 -1.21,-2.51 -4.28,-3.72 -6.18,-3.18 -0.76,0.21 -1.95,0.88 -2.28,1.07 -0.33,0.18 -1.36,0.76 -1.87,1.22 -1.49,1.32 -2.19,4.71 -0.53,7.16z"/>
    <path class="fil2" d="M57.07 14.64l0 0 0 0zm-0.01 -0.01c0,0 0,0 0,0 0,0 0,0 0,0zm-0.02 -0.02c0,0 0,0 0,0 0,0 0,0 0,0zm0 0l0 0 0 0zm-0.01 -0.02c0,0 0,0 0,0 0,0 0,0 0,0zm-0.01 0c0,0 0,0 0,0 0,0 0,0 0,0zm-0.01 -0.02c0,0 0,0 0,0 0,0 0,0 0,0zm0 0c-0.01,0 -0.01,-0.01 -0.01,-0.01 0,0 0,0.01 0.01,0.01zm-0.01 -0.01c0,0 0,0 0,0 0,0 0,0 0,0zm-0.01 -0.01c0,0 0,0 0,0 0,0 0,0 0,0zm0 0c0,-0.01 0,-0.01 0,-0.01 0,0 0,0 0,0.01zm-0.01 -0.01c0,0 0,0 0,0 0,0 0,0 0,0zm0 -0.01c0,0 -0.01,0 -0.01,0 0,0 0.01,0 0.01,0zm-0.01 -0.01c0,0 0,0 0,0 0,0 0,0 0,0zm0 0c0,0 -0.01,0 -0.01,-0.01 0,0.01 0.01,0.01 0.01,0.01zm-0.01 -0.01c0,0 0,0 0,0 0,0 0,0 0,0zm-0.01 -0.01c0,0 0,0 0,0 0,0 0,0 0,0zm0 0c0,0 0,-0.01 0,-0.01 0,0 0,0.01 0,0.01zm-0.01 -0.01c0,0 0,0 0,0 0,0 0,0 0,0zm0 -0.01c0,0 0,0 -0.01,0 0.01,0 0.01,0 0.01,0zm-0.01 0c0,0 0,-0.01 0,-0.01 0,0 0,0.01 0,0.01zm0 -0.01c0,0 0,0 -0.01,0 0.01,0 0.01,0 0.01,0zm-0.01 -0.01c0,0 0,0 0,0 0,0 0,0 0,0zm0 0c0,-0.01 -0.01,-0.01 -0.01,-0.01 0,0 0.01,0 0.01,0.01zm-0.01 -0.01c0,0 0,0 0,-0.01 0,0.01 0,0.01 0,0.01zm0 -0.01c-0.01,0 -0.01,0 -0.01,0 0,0 0,0 0.01,0zm-0.01 0c0,-0.01 0,-0.01 0,-0.01 0,0 0,0 0,0.01zm-0.01 -0.01c0,0 0,-0.01 0,-0.01 0,0 0,0.01 0,0.01zm0 -0.01c0,0 0,0 0,0 0,0 0,0 0,0zm-0.01 -0.01c0,0 0,0 0,0 0,0 0,0 0,0zm0 0c0,-0.01 0,-0.01 -0.01,-0.01 0.01,0 0.01,0 0.01,0.01zm-0.01 -0.01c0,0 0,0 0,-0.01 0,0.01 0,0.01 0,0.01zm0 -0.01c-0.01,0 -0.01,-0.01 -0.01,-0.01 0,0 0,0.01 0.01,0.01zm-0.01 -0.01c-0.01,0 -0.01,-0.01 -0.01,-0.01 0,0 0,0.01 0.01,0.01zm-0.01 -0.01c0,0 0,0 0,0 0,0 0,0 0,0zm0 -0.01c-0.01,0 -0.01,0 -0.01,0 0,0 0,0 0.01,0zm-0.01 0c0,-0.01 0,-0.01 0,-0.01 0,0 0,0 0,0.01zm-0.01 -0.01c0,0 0,0 0,-0.01 0,0.01 0,0.01 0,0.01zm0 -0.01c0,0 -0.01,-0.01 -0.01,-0.01 0,0 0.01,0.01 0.01,0.01zm-0.01 -0.01c0,0 0,-0.01 -0.01,-0.01 0.01,0 0.01,0.01 0.01,0.01zm-0.01 -0.01c0,0 0,0 0,-0.01 0,0.01 0,0.01 0,0.01zm0 -0.01c0,0 0,0 -0.01,0 0.01,0 0.01,0 0.01,0zm-0.01 0c0,-0.01 0,-0.01 0,-0.01 0,0 0,0 0,0.01zm0 -0.01c0,0 -0.01,-0.01 -0.01,-0.01 0,0 0.01,0.01 0.01,0.01zm-0.01 -0.01c0,0 0,-0.01 -0.01,-0.01 0.01,0 0.01,0.01 0.01,0.01zm-0.01 -0.01c0,-0.01 0,-0.01 0,-0.01 0,0 0,0 0,0.01zm0 -0.01c0,0 -0.01,-0.01 -0.01,-0.01 0,0 0.01,0.01 0.01,0.01zm-0.01 -0.01c0,0 0,0 0,0 0,0 0,0 0,0zm0 -0.01c-0.01,0 -0.01,0 -0.01,0 0,0 0,0 0.01,0zm-0.01 0c0,-0.01 0,-0.01 0,-0.01 0,0 0,0 0,0.01zm0 -0.01c-0.01,0 -0.01,0 -0.01,-0.01 0,0 0,0.01 0.01,0.01zm-0.01 -0.01c0,0 0,0 0,0 0,0 0,0 0,0zm-0.01 -0.01c0,0 0,0 0,0 0,0 0,0 0,0zm0 0c0,-0.01 0,-0.01 0,-0.01 0,0 0,0 0,0.01zm0 -0.01c-0.01,0 -0.01,0 -0.01,-0.01 0,0.01 0,0.01 0.01,0.01zm-0.01 -0.01c0,0 0,0 0,0 0,0 0,0 0,0zm-0.01 -0.01c0,0 0,0 0,0 0,0 0,0 0,0zm0 0c0,0 0,-0.01 -0.01,-0.01 0.01,0 0.01,0.01 0.01,0.01zm-0.01 -0.01c0,0 0,0 0,-0.01 0,0.01 0,0.01 0,0.01zm0 -0.01c0,0 0,0 0,0 0,0 0,0 0,0zm-0.01 -0.01c0,0 0,0 0,0 -0.07,-0.11 -0.14,-0.21 -0.2,-0.32 0.06,0.11 0.13,0.21 0.2,0.32 0,0 0,0 0,0zm4.72 -9.47c0,0 0,0 0,0 0,0 0,0 0,0zm-0.02 0.01c0,0 0,0 0,0 0,0 0,0 0,0zm0 0c0,0 0,0 0,0 0,0 0,0 0,0zm-0.01 0c0,0 0,0 0,0 0,0 0,0 0,0zm0 0c0,0 0,0 -0.01,0 0.01,0 0.01,0 0.01,0zm-0.01 0.01c0,0 0,0 0,0 0,0 0,0 0,0zm-4.14 2.27c0.01,0 0.01,-0.01 0.02,-0.01 -0.01,0 -0.01,0.01 -0.02,0.01zm0.02 -0.02c0.01,0 0.01,0 0.01,0 0,0 0,0 -0.01,0zm0.01 0c0.01,-0.01 0.01,-0.01 0.02,-0.01 -0.01,0 -0.01,0 -0.02,0.01zm0.02 -0.01c0,-0.01 0,-0.01 0,-0.01 0,0 0,0 0,0.01zm1.81 -1.17c-0.07,0.04 -0.18,0.1 -0.32,0.18 0.14,-0.08 0.25,-0.14 0.32,-0.18zm-0.38 0.21c0.02,-0.01 0.04,-0.02 0.06,-0.03l0 0c-0.02,0.01 -0.04,0.02 -0.06,0.03z"/>
    <path class="fil3" d="M62.81 16.5c-0.74,0.03 -1.49,-0.05 -2.2,-0.25 -1.48,-0.43 -2.81,-1.42 -3.56,-2.76 -0.75,-1.35 -0.87,-3.05 -0.23,-4.45 0.14,-0.32 0.35,-0.64 0.65,-0.82 0.03,-0.01 0.06,-0.03 0.09,-0.04 0.37,-0.17 0.8,-0.09 1.19,-0.21 0.31,-0.08 0.58,-0.29 0.89,-0.37 0.5,-0.13 1.07,0.05 1.51,-0.21 0.01,0 0.03,-0.01 0.04,-0.02 0.35,-0.23 0.48,-0.68 0.8,-0.93 0.04,-0.03 0.08,-0.06 0.12,-0.08 0.22,-0.12 0.47,-0.18 0.69,-0.3 0,-0.01 0.01,-0.01 0.02,-0.01 0.25,-0.15 0.47,-0.45 0.36,-0.71 -0.07,-0.16 0.04,-0.34 0.19,-0.43 0.03,-0.01 0.07,-0.03 0.1,-0.04 0.2,-0.05 0.41,0 0.61,0.04 0.04,0.01 0.08,0.02 0.12,0.02 -0.98,-0.36 -1.98,-0.45 -2.78,-0.24 0,0 0,0 0,0 -0.01,0.01 -0.01,0.01 -0.02,0.01 0,0 0,0 0,0 0,0 0,0 0,0 0,0 0,0 0,0 -0.01,0 -0.01,0 -0.01,0 0,0 0,0 0,0 0,0 0,0 0,0 0,0 0,0 -0.01,0 0,0 0,0 0,0.01 0,0 0,0 0,0l0 0c-0.76,0.21 -1.95,0.88 -2.28,1.07l0 0c-0.07,0.04 -0.18,0.1 -0.32,0.18 0,0 0,0 0,0 -0.02,0.01 -0.04,0.02 -0.06,0.03 -0.43,0.25 -1.04,0.63 -1.43,0.95 0,0 0,0 0,0.01 0,0 0,0 0,0 -0.01,0 -0.01,0 -0.02,0.01 0,0 0,0 0,0 0,0 0,0 -0.01,0 0,0.01 0,0.01 0,0.01 -0.01,0 -0.01,0.01 -0.02,0.01 0,0.01 -0.01,0.01 -0.01,0.02 -1.43,1.26 -2.12,4.43 -0.73,6.84 0.06,0.11 0.13,0.21 0.2,0.32 0,0 0,0 0,0 0,0.01 0,0.01 0.01,0.01 0,0 0,0 0,0 0,0 0,0 0,0 0,0.01 0,0.01 0,0.01 0,0 0,0 0,0 0.01,0 0.01,0.01 0.01,0.01 0,0 0,0 0,0 0,0 0,0 0,0 0,0.01 0.01,0.01 0.01,0.01 0,0 0,0 0,0 0,0 0,0 0,0 0,0.01 0,0.01 0.01,0.01l0 0c0,0 0,0 0,0.01 0,0 0,0 0,0 0,0 0,0 0,0 0.01,0 0.01,0.01 0.01,0.01 0,0 0,0 0,0 0,0 0,0 0,0 0,0.01 0,0.01 0.01,0.01 0,0 0,0 0,0 0,0 0,0 0,0.01 0,0 0,0 0,0 0,0 0,0 0.01,0 0,0 0,0 0,0.01 0,0 0,0 0,0 0,0 0,0 0,0 0,0 0.01,0.01 0.01,0.01 0,0 0,0 0,0 0,0 0,0 0,0.01 0,0 0,0 0,0 0.01,0 0.01,0.01 0.01,0.01 0,0 0,0 0,0 0,0 0.01,0.01 0.01,0.01 0,0 0,0 0,0 0,0 0,0 0,0.01 0,0 0,0 0,0 0.01,0 0.01,0 0.01,0 0,0 0,0 0,0 0,0.01 0,0.01 0,0.01 0,0 0,0 0,0 0.01,0 0.01,0.01 0.01,0.01 0,0 0,0 0,0 0,0 0.01,0.01 0.01,0.01 0,0 0,0 0,0 0,0.01 0,0.01 0,0.01 0,0 0.01,0 0.01,0 0,0 0,0 0,0.01 0,0 0,0 0,0 0,0 0,0 0.01,0 0,0 0,0 0,0.01 0,0 0,0 0,0 0,0 0,0 0,0 0,0 0,0.01 0.01,0.01 0,0 0,0 0,0 0,0 0,0.01 0.01,0.01 0,0 0,0 0,0 0,0.01 0,0.01 0,0.01 0,0 0,0 0,0 0.01,0 0.01,0 0.01,0.01 0,0 0,0 0,0 0,0 0,0 0,0 0,0 0,0.01 0.01,0.01 0,0 0,0 0,0 0,0 0,0 0,0 0,0 0,0.01 0,0.01 0,0 0,0 0.01,0 0,0 0,0 0,0.01 0,0 0,0 0,0 0,0 0,0 0.01,0 0,0 0,0 0,0 0,0.01 0,0.01 0,0.01 0,0 0,0 0,0 0,0 0.01,0 0.01,0.01 0,0 0,0 0,0 0,0 0,0 0,0 0,0 0,0 0,0.01 0.01,0 0.01,0 0.01,0 0,0 0,0 0,0 0,0 0,0.01 0,0.01 0,0 0,0 0,0 0.01,0 0.01,0 0.01,0 0,0.01 0,0.01 0,0.01 0,0 0,0 0,0 0,0 0.01,0 0.01,0 0,0 0,0.01 0,0.01 0,0 0,0 0,0 0,0 0,0 0,0 0.01,0.01 0.01,0.01 0.01,0.01 0,0 0,0 0,0 0,0 0,0 0,0 0,0.01 0.01,0.01 0.01,0.01 0,0 0,0 0,0 0,0 0,0 0,0 0,0.01 0,0.01 0,0.01 0,0 0.01,0 0.01,0 0,0 0,0 0,0.01 0,0 0,0 0,0 0,0 0.01,0 0.01,0 0,0 0,0 0,0.01 0,0 0,0 0,0 0,0 0,0 0,0 0,0 0.01,0.01 0.01,0.01 0,0 0,0 0,0 0,0 0,0 0,0 0,0 0,0.01 0.01,0.01 0,0 0,0 0,0 0,0 0,0 0,0 0,0.01 0.01,0.01 0.01,0.02 0,0 0,0 0,0 0,0 0,0 0.01,0 0,0 0,0 0,0 0,0.01 0.01,0.01 0.01,0.02l0 0c0,0 0,0 0,0 0,0 0,0 0,0 0.01,0.01 0.02,0.02 0.02,0.02 0,0 0,0 0,0 0,0.01 0.01,0.01 0.01,0.01l0 0c1.4,1.63 3.67,2.23 5.74,1.86z"/>
    <path class="fil4" d="M57.49 5.19c-0.22,-0.21 -0.5,-0.36 -0.79,-0.44 0.3,0.15 0.67,-0.05 0.98,0.04 0.11,0.03 0.2,0.1 0.29,0.16 0.53,0.38 1.04,0.9 1.7,0.88 0.53,-0.02 0.97,-0.42 1.34,-0.82 0.25,-0.27 0.5,-0.55 0.67,-0.88 0.27,-0.51 0.4,-1.18 0.92,-1.44 -0.09,0.5 -0.26,0.99 -0.52,1.43 -0.22,0.37 -0.49,0.72 -0.55,1.15 -0.01,0.09 0,0.2 0.07,0.25 0.08,0.06 0.19,0.03 0.28,0 0.37,-0.14 0.79,-0.32 0.91,-0.7 0.11,-0.34 -0.07,-0.73 0.03,-1.08 0.07,0.26 0.14,0.52 0.21,0.77 0.11,0.39 0.19,0.85 -0.08,1.14 -0.25,0.25 -0.68,0.25 -0.9,0.52 -0.09,0.1 -0.13,0.23 -0.19,0.35 -0.23,0.47 -0.73,0.78 -1.25,0.77 -0.2,0 -0.4,-0.05 -0.61,-0.06 -0.87,-0.03 -1.65,0.68 -2.52,0.61 -0.15,-0.01 -0.31,-0.04 -0.44,-0.13 -0.12,-0.08 -0.21,-0.19 -0.29,-0.31 -0.38,-0.59 -0.48,-1.34 -0.26,-2 -0.03,0.2 -0.05,0.62 0.17,1.06 0.08,0.17 0.18,0.38 0.4,0.53 0.51,0.34 1.34,0.12 1.59,-0.32 0.02,-0.04 0.12,-0.22 0.07,-0.41 -0.04,-0.13 -0.13,-0.24 -0.28,-0.33 -0.39,-0.22 -0.63,-0.44 -0.95,-0.74z"/>
    <path class="fil4" d="M59.17 4.4c-0.02,-0.14 -0.04,-0.28 0.01,-0.42 0.05,-0.13 0.19,-0.24 0.33,-0.2 0.15,0.8 0.43,1.58 0.83,2.29 -0.07,0.12 -0.15,0.25 -0.26,0.33 -0.43,0.31 -0.5,-0.33 -0.59,-0.61 -0.14,-0.45 -0.24,-0.92 -0.32,-1.39z"/>
    <path class="fil5" d="M59.92 7.21c0.33,0.09 0.68,-0.05 0.95,-0.27 0.26,-0.22 0.45,-0.52 0.66,-0.79 0.21,-0.27 0.46,-0.52 0.79,-0.63 -0.13,0.21 -0.23,0.44 -0.3,0.68 -0.07,0.1 -0.11,0.22 -0.16,0.32 -0.23,0.47 -0.73,0.78 -1.25,0.77 -0.2,0 -0.4,-0.05 -0.61,-0.06 -0.02,0 -0.05,0 -0.07,0l-0.01 -0.02z"/>
    <path class="fil6" d="M59.17 4.4c-0.02,-0.14 -0.04,-0.28 0.01,-0.42 0.02,-0.04 0.04,-0.08 0.08,-0.11 -0.03,0.89 0.29,1.8 0.88,2.48 -0.02,0.02 -0.04,0.04 -0.06,0.05 -0.43,0.31 -0.5,-0.33 -0.59,-0.61 -0.14,-0.45 -0.24,-0.92 -0.32,-1.39z"/>
    <path class="fil7" d="M58.09 12.11c-0.25,-0.26 -0.64,-0.7 -0.83,-1.39 -0.14,-0.52 -0.09,-1.11 0.21,-1.57 0.27,-0.4 0.71,-0.66 1.17,-0.82 0.45,-0.17 0.93,-0.25 1.4,-0.39 0.91,-0.27 1.76,-0.75 2.47,-1.39 0.45,-0.42 0.89,-0.93 1.49,-1.07 0.69,-0.17 1.41,0.2 1.9,0.71 0.96,1.01 1.23,2.62 0.64,3.89 -0.34,0.74 -0.93,1.34 -1.6,1.8 -0.88,0.6 -1.82,1.44 -3.29,1.54 -1.39,0.09 -2.72,-0.47 -3.56,-1.31z"/>
    <path class="fil8" d="M58.64 12.93c0.05,-0.03 0.11,-0.06 0.16,-0.1 0.04,-0.02 0.08,-0.05 0.12,-0.08 -0.31,-0.19 -0.59,-0.4 -0.83,-0.64 -0.25,-0.26 -0.64,-0.7 -0.83,-1.39 -0.14,-0.52 -0.09,-1.11 0.21,-1.57 0.04,-0.05 0.08,-0.1 0.12,-0.15 -0.06,-0.01 -0.12,0 -0.17,0.03 -0.38,0.22 -0.55,1.43 -0.57,1.7 -0.05,0.69 0.07,1.4 0.46,1.97 0.11,0.16 0.25,0.31 0.44,0.39 0.29,0.11 0.61,0 0.89,-0.16z"/>
    <path class="fil9" d="M58.92 12.75c0.4,-0.29 0.77,-0.67 0.86,-1.15 0.11,-0.55 -0.2,-1.13 -0.67,-1.44 -0.33,-0.21 -0.74,-0.31 -1,-0.62 -0.12,-0.14 -0.19,-0.32 -0.33,-0.45 -0.07,-0.05 -0.13,-0.08 -0.19,-0.09 -0.04,0.05 -0.08,0.1 -0.12,0.15 -0.3,0.46 -0.35,1.05 -0.21,1.57 0.19,0.69 0.58,1.13 0.83,1.39 0.24,0.24 0.52,0.45 0.83,0.64z"/>
    <path class="fil10" d="M65 9.57c0.32,-0.18 0.6,-0.42 0.81,-0.71 0.12,-0.17 0.23,-0.35 0.27,-0.56 0.1,-0.46 -0.14,-0.94 -0.44,-1.31 -0.2,-0.24 -0.44,-0.46 -0.74,-0.54 -0.32,-0.08 -0.63,0.02 -0.92,0.19 -0.21,0.12 -0.4,0.27 -0.58,0.42 -0.36,0.3 -0.72,0.59 -1.07,0.9 -0.18,0.15 -0.39,0.3 -0.46,0.54 -0.19,0.75 0.68,1.3 1.3,1.41 0.62,0.11 1.28,-0.02 1.83,-0.34z"/>
   </g>
  </g>
 </g>
</svg>
