<?xml version="1.0" encoding="UTF-8"?>
<!DOCTYPE svg PUBLIC "-//W3C//DTD SVG 1.1//EN" "http://www.w3.org/Graphics/SVG/1.1/DTD/svg11.dtd">
<!-- Creator: CorelDRAW 2020 (64-Bit) -->
<svg xmlns="http://www.w3.org/2000/svg" xml:space="preserve" width="94px" height="102px" version="1.1" style="shape-rendering:geometricPrecision; text-rendering:geometricPrecision; image-rendering:optimizeQuality; fill-rule:evenodd; clip-rule:evenodd"
viewBox="0 0 183.78 198.95"
 xmlns:xlink="http://www.w3.org/1999/xlink"
 xmlns:xodm="http://www.corel.com/coreldraw/odm/2003">
 <defs>
  <style type="text/css">
   <![CDATA[
    .fil1 {fill:#F2D1D0;fill-rule:nonzero}
    .fil5 {fill:#708635;fill-rule:nonzero}
    .fil3 {fill:#7E9A37;fill-rule:nonzero}
    .fil4 {fill:#9DB44D;fill-rule:nonzero}
    .fil2 {fill:#D22C26;fill-rule:nonzero}
    .fil0 {fill:#DF2F25;fill-rule:nonzero}
    .fil6 {fill:#E64127;fill-rule:nonzero}
    .fil7 {fill:#E65145;fill-rule:nonzero}
    .fil8 {fill:#EC654D;fill-rule:nonzero}
    .fil9 {fill:#F08773;fill-rule:nonzero}
   ]]>
  </style>
 </defs>
 <g id="Layer_x0020_1">
  <metadata id="CorelCorpID_0Corel-Layer"/>
  <g id="_2934519909328">
   <path class="fil0" d="M0.2 119.13c3.24,45.27 45.78,78.6 89.04,79.78 45.93,1.26 90.88,-33.77 94.33,-79.78 3.04,-40.54 -26.98,-78.4 -55.03,-85.49 -11.18,-2.82 -31.11,-3.04 -36.66,-3.11 -5.44,-0.06 -22.73,-0.25 -32.61,1.77 -28.55,5.83 -62.15,43.78 -59.07,86.83z"/>
   <path class="fil1" d="M1.34 127.91l0 0 0 0zm-0.02 -0.1c0,0 0,0 0,-0.01 0,0.01 0,0.01 0,0.01zm-0.07 -0.39c0,-0.01 0,-0.01 0,-0.02 0,0.01 0,0.01 0,0.02zm-0.02 -0.11l0 0 0 0zm-0.05 -0.28c0,-0.01 0,-0.02 0,-0.03 0,0.01 0,0.02 0,0.03zm-0.02 -0.11c0,-0.01 0,-0.02 0,-0.03 0,0.01 0,0.02 0,0.03zm-0.05 -0.28c0,-0.01 0,-0.02 0,-0.03 0,0.01 0,0.02 0,0.03zm-0.01 -0.11c-0.01,-0.01 -0.01,-0.02 -0.01,-0.04 0,0.02 0,0.03 0.01,0.04zm-0.02 -0.11c-0.01,-0.01 -0.01,-0.03 -0.01,-0.04 0,0.01 0,0.03 0.01,0.04zm-0.03 -0.16c0,-0.02 -0.01,-0.03 -0.01,-0.05 0,0.02 0.01,0.03 0.01,0.05zm-0.02 -0.11c0,-0.02 -0.01,-0.04 -0.01,-0.05 0,0.01 0.01,0.03 0.01,0.05zm-0.02 -0.12c0,-0.02 0,-0.03 -0.01,-0.05 0.01,0.02 0.01,0.03 0.01,0.05zm-0.02 -0.13c-0.01,-0.03 -0.01,-0.06 -0.01,-0.09 0,0.03 0,0.06 0.01,0.09zm-0.02 -0.14c-0.01,-0.02 -0.01,-0.04 -0.01,-0.06 0,0.02 0,0.04 0.01,0.06zm-0.02 -0.12c-0.01,-0.02 -0.01,-0.04 -0.01,-0.06 0,0.02 0,0.04 0.01,0.06zm-0.02 -0.11c0,-0.03 -0.01,-0.06 -0.01,-0.08 0,0.02 0.01,0.05 0.01,0.08zm-0.02 -0.15c-0.01,-0.03 -0.01,-0.05 -0.01,-0.07 0,0.02 0,0.04 0.01,0.07zm-0.02 -0.13c-0.01,-0.02 -0.01,-0.04 -0.01,-0.06 0,0.02 0,0.04 0.01,0.06zm-0.02 -0.11c0,-0.03 -0.01,-0.06 -0.01,-0.08 0,0.02 0.01,0.05 0.01,0.08zm-0.02 -0.12c0,-0.04 -0.01,-0.07 -0.01,-0.11 0,0.03 0.01,0.07 0.01,0.11zm-0.02 -0.15c0,-0.03 -0.01,-0.06 -0.01,-0.08 0,0.02 0.01,0.05 0.01,0.08zm-0.02 -0.13c0,-0.02 -0.01,-0.05 -0.01,-0.07 0,0.02 0.01,0.05 0.01,0.07zm-0.02 -0.11c0,-0.04 -0.01,-0.08 -0.01,-0.12 0,0.04 0.01,0.08 0.01,0.12zm-0.02 -0.15c0,-0.02 -0.01,-0.05 -0.01,-0.08 0,0.03 0.01,0.06 0.01,0.08zm-0.01 -0.13c-0.01,-0.03 -0.01,-0.05 -0.02,-0.08 0.01,0.03 0.01,0.06 0.02,0.08zm-0.02 -0.12c0,-0.03 -0.01,-0.06 -0.01,-0.09 0,0.03 0.01,0.06 0.01,0.09zm-0.02 -0.11c0,-0.05 -0.01,-0.08 -0.01,-0.12 0,0.03 0.01,0.08 0.01,0.12zm-0.02 -0.15c0,-0.03 -0.01,-0.06 -0.01,-0.09 0,0.03 0.01,0.06 0.01,0.09zm-0.02 -0.13c0,-0.03 0,-0.06 -0.01,-0.09 0.01,0.03 0.01,0.06 0.01,0.09zm-0.01 -0.12c-0.01,-0.04 -0.01,-0.08 -0.02,-0.12 0.01,0.04 0.01,0.08 0.02,0.12zm-0.02 -0.14c0,-0.03 -0.01,-0.06 -0.01,-0.09 0,0.03 0.01,0.06 0.01,0.09zm-0.02 -0.14c0,-0.02 -0.01,-0.05 -0.01,-0.08 0,0.03 0.01,0.06 0.01,0.08zm-0.01 -0.12c-0.01,-0.08 -0.02,-0.15 -0.03,-0.23 0.01,0.08 0.02,0.15 0.03,0.23zm-0.04 -0.27c0,-0.02 0,-0.06 -0.01,-0.08 0.01,0.03 0.01,0.05 0.01,0.08zm-0.01 -0.12c0,-0.03 -0.01,-0.07 -0.01,-0.1 0,0.03 0.01,0.07 0.01,0.1zm-0.02 -0.12c0,-0.04 -0.01,-0.08 -0.01,-0.12 0,0.04 0.01,0.08 0.01,0.12zm-0.01 -0.14c-0.01,-0.03 -0.01,-0.07 -0.01,-0.1 0,0.03 0,0.07 0.01,0.1zm-0.02 -0.13c0,-0.03 -0.01,-0.07 -0.01,-0.1 0,0.03 0.01,0.06 0.01,0.1zm-0.01 -0.12c-0.01,-0.09 -0.02,-0.17 -0.03,-0.25 0.01,0.08 0.02,0.16 0.03,0.25zm-0.03 -0.28c-0.01,-0.03 -0.01,-0.06 -0.01,-0.09 0,0.03 0,0.06 0.01,0.09zm-0.02 -0.12c0,-0.04 -0.01,-0.08 -0.01,-0.11 0,0.03 0.01,0.07 0.01,0.11zm-0.01 -0.12c0,-0.04 -0.01,-0.08 -0.01,-0.13 0,0.04 0.01,0.09 0.01,0.13zm-0.02 -0.15c0,-0.03 0,-0.07 -0.01,-0.1 0.01,0.04 0.01,0.07 0.01,0.1zm-0.01 -0.13c0,-0.03 -0.01,-0.07 -0.01,-0.1 0,0.03 0.01,0.07 0.01,0.1zm-0.01 -0.12c-0.01,-0.08 -0.02,-0.16 -0.03,-0.25 0.01,0.09 0.02,0.17 0.03,0.25zm-0.03 -0.28c0,-0.03 -0.01,-0.06 -0.01,-0.09 0,0.03 0.01,0.06 0.01,0.09zm-0.01 -0.12c0,-0.04 -0.01,-0.08 -0.01,-0.12 0,0.04 0.01,0.08 0.01,0.12zm-0.01 -0.12c-0.01,-0.04 -0.01,-0.09 -0.02,-0.13 0.01,0.04 0.01,0.09 0.02,0.13zm-0.02 -0.15c0,-0.03 0,-0.07 -0.01,-0.1 0.01,0.04 0.01,0.07 0.01,0.1zm-0.01 -0.13c0,-0.03 -0.01,-0.07 -0.01,-0.1 0,0.03 0.01,0.06 0.01,0.1zm-0.01 -0.12c-0.01,-0.04 -0.01,-0.09 -0.01,-0.12 0,0.03 0,0.08 0.01,0.12zm-0.01 -0.14c-0.01,-0.04 -0.01,-0.07 -0.01,-0.11 0,0.04 0,0.07 0.01,0.11zm-0.02 -0.14c0,-0.03 0,-0.06 0,-0.09 0,0.03 0,0.06 0,0.09zm-0.01 -0.12c0,-0.04 0,-0.08 -0.01,-0.12 0.01,0.04 0.01,0.08 0.01,0.12zm-0.01 -0.12c0,-0.05 0,-0.09 -0.01,-0.13 0.01,0.05 0.01,0.08 0.01,0.13zm-0.01 -0.16c0,-0.03 0,-0.06 -0.01,-0.09 0.01,0.03 0.01,0.06 0.01,0.09zm-0.01 -0.12c0,-0.03 0,-0.07 -0.01,-0.1 0.01,0.03 0.01,0.06 0.01,0.1zm-0.01 -0.13c0,-0.04 -0.01,-0.08 -0.01,-0.12 0,0.04 0.01,0.08 0.01,0.12zm-0.01 -0.14c0,-0.03 0,-0.07 -0.01,-0.1 0.01,0.03 0.01,0.07 0.01,0.1zm-0.01 -0.14c0,-0.02 0,-0.06 -0.01,-0.08 0.01,0.03 0.01,0.05 0.01,0.08zm-0.01 -0.12c0,-0.04 -0.01,-0.08 -0.01,-0.12 -0.13,-1.85 -0.2,-3.69 -0.2,-5.52 0,1.83 0.07,3.67 0.2,5.52 0,0.04 0.01,0.08 0.01,0.12zm128.96 -85.44c0,0 0,0 0,0 0,0 0,0 0,0zm-0.25 -0.07c-0.01,0 -0.02,0 -0.03,-0.01 0.01,0.01 0.02,0.01 0.03,0.01zm-0.07 -0.02c-0.02,0 -0.03,-0.01 -0.04,-0.01 0.01,0 0.03,0.01 0.04,0.01zm-0.08 -0.02c-0.01,0 -0.03,-0.01 -0.04,-0.01 0.01,0 0.03,0.01 0.04,0.01zm-0.07 -0.02c-0.02,0 -0.04,-0.01 -0.05,-0.01 0.01,0 0.03,0.01 0.05,0.01zm-0.08 -0.02c-0.02,0 -0.05,-0.01 -0.08,-0.02 0.03,0.01 0.06,0.02 0.08,0.02zm-69.05 -1.43c0.08,-0.01 0.15,-0.03 0.23,-0.04 -0.08,0.01 -0.15,0.03 -0.23,0.04zm0.37 -0.07c0.03,0 0.07,-0.01 0.11,-0.02 -0.04,0.01 -0.08,0.02 -0.11,0.02zm0.21 -0.03c0.07,-0.02 0.14,-0.03 0.22,-0.05 -0.08,0.02 -0.15,0.03 -0.22,0.05zm0.22 -0.05c0.02,0 0.05,-0.01 0.07,-0.01 -0.02,0 -0.05,0.01 -0.07,0.01zm31.51 -1.55c-1.24,-0.01 -3.09,-0.03 -5.33,-0.03 2.24,0 4.09,0.02 5.33,0.03zm-6.44 -0.03c0.38,0 0.75,0 1.11,0l0 0c-0.36,0 -0.73,0 -1.11,0z"/>
   <path class="fil2" d="M60.55 193.44c-9.67,-5.01 -18.56,-11.46 -26.12,-19.31 -15.62,-16.2 -25.27,-38.4 -24.9,-60.91 0.38,-22.5 11.22,-44.93 29.55,-58 4.22,-3.01 9.14,-5.6 14.26,-5.6 0.5,0 1,0.02 1.51,0.07 5.89,0.6 10.84,4.72 16.59,6.17 4.57,1.14 9.45,0.55 13.99,1.79 7.21,1.96 13.21,8.37 20.58,8.37 0.24,0 0.49,-0.01 0.73,-0.02 5.99,-0.36 10.95,-5.09 16.9,-5.91 0.71,-0.1 1.42,-0.15 2.13,-0.15 3.61,0 7.22,1.08 10.87,1.18 0.11,0.01 0.23,0.01 0.34,0.01 4.28,0 9.16,-2.15 9.76,-6.36 0.34,-2.48 2.98,-3.93 5.54,-3.93 0.53,0 1.06,0.06 1.56,0.19 2.93,0.75 5.2,2.99 7.46,5 0.42,0.37 0.86,0.74 1.31,1.1 -9.76,-11.72 -21.74,-20.18 -33.44,-23.32 0,0 0,0 0,0 -0.08,-0.03 -0.17,-0.05 -0.25,-0.07 -0.01,0 -0.02,0 -0.03,-0.01 -0.02,0 -0.03,0 -0.04,-0.01 -0.01,0 -0.03,-0.01 -0.04,-0.01 -0.01,0 -0.02,0 -0.04,-0.01 -0.01,0 -0.03,-0.01 -0.04,-0.01 -0.01,0 -0.02,-0.01 -0.03,-0.01 -0.02,0 -0.04,-0.01 -0.05,-0.01 -0.01,0 -0.02,0 -0.03,-0.01 -0.02,0 -0.05,-0.01 -0.08,-0.02l0 0c-11.18,-2.82 -31.11,-3.04 -36.66,-3.11l0 0c-1.24,-0.01 -3.09,-0.03 -5.33,-0.03 0,0 0,0 0,0 -0.36,0 -0.73,0 -1.11,0 -7.22,0.02 -17.73,0.28 -25,1.57 -0.02,0 -0.05,0.01 -0.07,0.01 0,0 0,0 0,0 -0.08,0.02 -0.15,0.03 -0.22,0.05 -0.04,0 -0.07,0.01 -0.1,0.01 -0.04,0.01 -0.08,0.02 -0.11,0.02 -0.05,0.01 -0.1,0.02 -0.14,0.03 -0.08,0.01 -0.15,0.03 -0.23,0.04 -0.1,0.02 -0.2,0.04 -0.3,0.07 -27.33,5.58 -59.27,40.58 -59.27,81.31 0,1.83 0.07,3.67 0.2,5.52 0,0.04 0.01,0.08 0.01,0.12 0,0.01 0,0.02 0,0.04 0.01,0.02 0.01,0.06 0.01,0.08 0,0.01 0,0.03 0,0.04 0.01,0.03 0.01,0.07 0.01,0.1 0,0.01 0,0.01 0,0.02 0,0.04 0.01,0.08 0.01,0.12 0,0.01 0,0.02 0,0.03 0.01,0.03 0.01,0.07 0.01,0.1 0,0.01 0,0.02 0,0.03 0.01,0.03 0.01,0.06 0.01,0.09 0,0.01 0,0.02 0,0.03 0.01,0.04 0.01,0.08 0.01,0.13l0 0c0.01,0.04 0.01,0.08 0.01,0.12 0,0.01 0.01,0.02 0.01,0.03 0,0.03 0,0.06 0,0.09 0.01,0.01 0.01,0.02 0.01,0.03 0,0.04 0,0.07 0.01,0.11 0,0.01 0,0.01 0,0.02 0,0.03 0,0.08 0.01,0.12 0,0.01 0,0.01 0,0.02 0,0.03 0.01,0.07 0.01,0.1 0,0.01 0,0.02 0,0.03 0.01,0.03 0.01,0.07 0.01,0.1 0,0.01 0,0.02 0,0.02 0.01,0.04 0.01,0.09 0.02,0.13 0,0 0,0 0,0 0,0.04 0.01,0.08 0.01,0.12 0,0.01 0,0.02 0,0.03 0,0.03 0.01,0.06 0.01,0.09 0,0.01 0,0.02 0,0.03 0.01,0.09 0.02,0.17 0.03,0.25 0,0.01 0,0.01 0,0.02 0,0.03 0.01,0.07 0.01,0.1 0,0.01 0,0.02 0,0.03 0.01,0.03 0.01,0.07 0.01,0.1 0.01,0.01 0.01,0.02 0.01,0.02 0,0.05 0.01,0.09 0.01,0.13 0,0 0,0.01 0,0.01 0,0.03 0.01,0.07 0.01,0.11 0,0.01 0.01,0.02 0.01,0.03 0,0.03 0,0.06 0.01,0.09 0,0.01 0,0.02 0,0.03 0.01,0.08 0.02,0.16 0.03,0.25 0,0 0,0.01 0,0.02 0,0.03 0.01,0.07 0.01,0.1 0,0.01 0,0.02 0.01,0.03 0,0.03 0,0.07 0.01,0.1 0,0.01 0,0.01 0,0.02 0,0.04 0.01,0.08 0.01,0.12 0.01,0.01 0.01,0.01 0.01,0.02 0,0.03 0.01,0.07 0.01,0.1 0,0.01 0,0.02 0,0.04 0.01,0.02 0.01,0.06 0.01,0.08 0.01,0.01 0.01,0.03 0.01,0.04 0.01,0.08 0.02,0.15 0.03,0.23 0,0.02 0,0.03 0,0.04 0,0.03 0.01,0.06 0.01,0.08 0,0.02 0.01,0.03 0.01,0.05 0,0.03 0.01,0.06 0.01,0.09 0,0.01 0,0.01 0,0.02 0.01,0.04 0.01,0.08 0.02,0.12 0,0.01 0,0.02 0,0.03 0.01,0.03 0.01,0.06 0.01,0.09 0.01,0.01 0.01,0.02 0.01,0.04 0,0.03 0.01,0.06 0.01,0.09 0,0.01 0.01,0.02 0.01,0.03 0,0.04 0.01,0.07 0.01,0.12 0,0 0,0.01 0.01,0.02 0,0.03 0.01,0.06 0.01,0.09 0,0.02 0,0.03 0,0.04 0.01,0.03 0.01,0.05 0.02,0.08 0,0.02 0,0.03 0,0.05 0,0.03 0.01,0.06 0.01,0.08 0,0.01 0.01,0.02 0.01,0.03 0,0.04 0.01,0.08 0.01,0.12 0,0.01 0.01,0.02 0.01,0.04 0,0.02 0.01,0.05 0.01,0.07 0,0.02 0.01,0.03 0.01,0.05 0,0.02 0.01,0.05 0.01,0.08 0,0.01 0,0.02 0.01,0.04 0,0.04 0.01,0.07 0.01,0.11 0,0.01 0.01,0.02 0.01,0.04 0,0.02 0.01,0.05 0.01,0.08 0,0.01 0.01,0.03 0.01,0.05 0,0.02 0,0.04 0.01,0.06 0,0.02 0,0.04 0.01,0.06 0,0.02 0,0.04 0.01,0.07 0,0.02 0,0.04 0.01,0.07 0,0.02 0.01,0.05 0.01,0.08 0,0.02 0,0.03 0.01,0.05 0,0.02 0,0.04 0.01,0.06 0,0.02 0,0.04 0.01,0.06 0,0.02 0,0.04 0.01,0.06 0,0.02 0,0.04 0.01,0.05 0,0.03 0,0.06 0.01,0.09 0,0.03 0.01,0.05 0.01,0.08 0.01,0.02 0.01,0.03 0.01,0.05 0.01,0.02 0.01,0.05 0.01,0.07 0,0.01 0.01,0.03 0.01,0.05 0,0.02 0.01,0.04 0.01,0.06 0,0.02 0.01,0.03 0.01,0.05 0,0.04 0.01,0.08 0.02,0.12 0,0.01 0,0.03 0.01,0.04 0,0.03 0,0.05 0.01,0.07 0,0.02 0,0.03 0.01,0.04 0,0.03 0,0.05 0.01,0.08 0,0.01 0,0.02 0,0.03 0.02,0.08 0.03,0.17 0.05,0.25 0,0.01 0,0.02 0,0.03 0.01,0.03 0.01,0.06 0.02,0.08 0,0.01 0,0.02 0,0.03 0.02,0.09 0.03,0.19 0.05,0.28l0 0c0.01,0.03 0.01,0.06 0.02,0.09 0,0.01 0,0.01 0,0.02 0.02,0.12 0.05,0.26 0.07,0.38 0,0.01 0,0.01 0,0.01 0.01,0.03 0.01,0.06 0.02,0.1l0 0c5.85,30.91 30.16,55.15 59.21,65.53z"/>
   <path class="fil3" d="M75.74 11.29c-1.27,-4.24 -3.59,-8.15 -6.7,-11.29 2.68,4.04 8.78,4.2 12.1,7.73 1.09,1.16 1.81,2.61 2.46,4.06 3.88,8.7 6.63,19.12 15.06,23.54 6.97,3.65 15.44,1.81 22.96,-0.49 5.19,-1.58 10.38,-3.37 14.97,-6.26 7.22,-4.55 13.72,-12.05 22.23,-11.58 -4.8,5.74 -10.62,10.62 -17.12,14.35 -5.4,3.1 -11.49,5.59 -15.27,10.55 -0.82,1.07 -1.53,2.49 -1,3.73 0.57,1.31 2.19,1.72 3.6,1.96 5.68,0.98 12.26,1.73 16.55,-2.13 3.96,-3.56 4.45,-9.86 8.36,-13.48 -1.01,3.78 -2.01,7.56 -3.02,11.34 -1.49,5.61 -3.81,12.11 -9.4,13.7 -4.93,1.4 -10.41,-1.8 -15.2,0.01 -1.84,0.7 -3.33,2.06 -4.95,3.16 -6.24,4.23 -14.95,4.48 -21.42,0.61 -2.56,-1.53 -4.74,-3.62 -7.26,-5.21 -10.81,-6.81 -25.88,-3.55 -36.45,-10.71 -1.87,-1.27 -3.56,-2.87 -4.58,-4.88 -0.95,-1.88 -1.27,-4.01 -1.38,-6.1 -0.53,-10.15 3.73,-20.45 11.28,-27.26 -1.81,2.43 -5.09,7.57 -5.63,14.71 -0.21,2.79 -0.47,6.18 1.26,9.64 4,8.02 16.12,11.33 22.39,7.6 0.69,-0.4 3.19,-1.96 3.91,-4.7 0.5,-1.88 0.08,-3.97 -1.18,-6.21 -3.2,-5.67 -4.68,-10.12 -6.57,-16.39z"/>
   <path class="fil3" d="M102.84 13.66c0.73,-1.92 1.57,-3.92 3.16,-5.22 1.59,-1.31 4.18,-1.63 5.62,-0.16 -3.89,11.27 -6,23.15 -6.23,35.07 -1.79,1.01 -3.65,2.04 -5.7,2.26 -7.64,0.82 -3.93,-7.86 -2.97,-11.97 1.59,-6.78 3.64,-13.46 6.12,-19.98z"/>
   <path class="fil4" d="M91.75 54.66c3.48,3.6 9.07,4.39 14,3.49 4.93,-0.9 9.47,-3.22 14.12,-5.08 4.66,-1.85 9.74,-3.26 14.65,-2.23 -3.21,1.68 -6.16,3.87 -8.73,6.42 -1.6,0.74 -2.96,1.94 -4.42,2.93 -6.24,4.23 -14.95,4.48 -21.42,0.61 -2.56,-1.53 -4.74,-3.62 -7.26,-5.21 -0.31,-0.19 -0.62,-0.37 -0.93,-0.55l-0.01 -0.38z"/>
   <path class="fil5" d="M102.84 13.66c0.73,-1.92 1.57,-3.92 3.16,-5.22 0.53,-0.44 1.18,-0.75 1.85,-0.94 -6.9,11.18 -9.45,24.99 -7.04,37.9 -0.36,0.1 -0.74,0.17 -1.12,0.21 -7.64,0.82 -3.93,-7.86 -2.97,-11.97 1.59,-6.78 3.64,-13.46 6.12,-19.98z"/>
   <path class="fil6" d="M32.84 103.32c-1.37,-5.1 -3.04,-13.51 -0.37,-23.59 2.04,-7.68 6.95,-14.81 14.07,-18.34 6.35,-3.14 13.83,-3.19 20.82,-1.95 6.98,1.24 13.69,3.69 20.58,5.34 13.55,3.25 27.83,3.39 41.44,0.41 8.86,-1.93 18.06,-5.18 26.76,-2.61 9.92,2.94 16.35,12.85 18.8,22.9 4.86,19.84 -3.57,42.26 -20.29,53.99 -9.72,6.82 -21.59,10.06 -33.43,11.04 -15.52,1.27 -33.57,4.99 -52.89,-4.58 -18.28,-9.05 -30.98,-25.8 -35.49,-42.61z"/>
   <path class="fil7" d="M33.73 117.78c0.92,0 1.84,-0.03 2.73,-0.09 0.72,-0.05 1.45,-0.11 2.17,-0.18 -2.55,-4.61 -4.51,-9.4 -5.79,-14.19 -1.37,-5.1 -3.04,-13.51 -0.37,-23.59 2.04,-7.68 6.95,-14.81 14.07,-18.34 0.87,-0.43 1.76,-0.8 2.68,-1.12 -0.68,-0.56 -1.47,-0.82 -2.34,-0.82 -6.51,0 -17.42,14.08 -19.68,17.41 -5.65,8.29 -9.33,18.25 -8.55,28.24 0.22,2.89 0.86,5.86 2.65,8.13 2.84,3.61 7.71,4.55 12.43,4.55z"/>
   <path class="fil8" d="M38.63 117.51c7.25,-0.73 14.66,-2.81 19.35,-8.26 5.34,-6.21 5.74,-15.78 1.99,-23.05 -2.64,-5.13 -7.15,-9.47 -8.11,-15.16 -0.46,-2.71 -0.06,-5.58 -0.98,-8.17 -0.43,-1.2 -0.99,-2.05 -1.66,-2.6 -0.92,0.32 -1.81,0.69 -2.68,1.12 -7.12,3.53 -12.03,10.66 -14.07,18.34 -2.67,10.08 -1,18.49 0.37,23.59 1.28,4.79 3.24,9.58 5.79,14.19z"/>
   <path class="fil9" d="M138.88 121.77c5.31,0 10.61,-1.03 15.48,-3.16 2.77,-1.21 5.44,-2.77 7.47,-5.02 4.69,-5.17 5.11,-12.95 3.97,-19.84 -0.75,-4.49 -2.17,-9.1 -5.44,-12.24 -3.47,-3.33 -8.14,-4.36 -13.04,-4.36 -3.48,0 -7.08,0.52 -10.45,1.1 -6.67,1.17 -13.36,2.26 -20.03,3.5 -3.32,0.61 -7.2,0.98 -9.7,3.52 -8.05,8.15 -0.97,21.42 6.05,27.34 7.1,6 16.41,9.16 25.69,9.16z"/>
  </g>
 </g>
</svg>
